<svg id="Layer_1" data-name="Layer 1" xmlns="http://www.w3.org/2000/svg" viewBox="0 0 1000 800"><defs><style>.cls-1{fill:#00b500;}.cls-2{fill:none;}</style></defs><title>Logo Vector</title><rect class="cls-1" x="460.17" y="345.08" width="12.42" height="12.42" transform="translate(384.99 -226.89) rotate(45)"/><rect class="cls-1" x="476.88" y="362.87" width="7.76" height="7.76" transform="translate(400.14 -232.53) rotate(45)"/><rect class="cls-1" x="472.76" y="316.82" width="20.27" height="20.27" transform="translate(372.62 -245.7) rotate(45)"/><rect class="cls-1" x="444.96" y="300.66" width="20.27" height="20.27" transform="translate(353.06 -230.77) rotate(45)"/><rect x="582.63" y="368.21" width="24.89" height="131.99"/><polygon points="709.53 368.21 679.36 368.21 642.78 422.32 626 422.32 626 445.89 644.48 445.89 682.38 500.2 712.73 500.2 665.22 432.69 709.53 368.21"/><path d="M811.42,366.16v23.7c24.91,2.62,35.18,15.42,35.18,44.34,0,32.62-13.2,44.69-46,44.69S754.4,466.82,754.4,434.2c0-28.4,10-41.25,34-44.19V366.27c-42.53,3.65-59.67,27.3-59.67,67.93,0,44.12,20.37,68.45,71.84,68.45s71.65-24.33,71.84-68.45C872.25,393.15,854.9,369.43,811.42,366.16Z"/><path d="M494.35,367.06v23.69c24.91,2.63,34.17,15.42,34.17,44.35,0,32.62-13.2,44.68-46,44.68s-46.2-12.06-46.2-44.68c0-28.41,9.05-41.26,33-44.2V367.17c-42.53,3.65-58.67,27.3-58.67,67.93,0,44.12,20.36,68.44,71.84,68.44s71.65-24.32,71.83-68.44C554.18,394.05,537.83,370.33,494.35,367.06Z"/><path class="cls-2" d="M364.62,411c0-10-4-19.23-23.76-19.23H280.71v38.65h60.15C360.66,430.43,364.62,421.19,364.62,411Z"/><path d="M167.74,368.21c-26,0-40.17,16-40.17,38.84s14.15,38.28,40.17,38.28h51c15.28,0,19.05,6.41,19.05,15.27s-3.77,16-19.05,16H132.48V500.2H218.7c30,0,42.62-17.73,42.62-39.6,0-23.38-12.64-38.84-42.62-38.84h-51c-11.51,0-16.6-4.91-16.6-14.71s5.09-15.27,16.6-15.27h91V368.21Z"/><path d="M340.86,368.21H280.71v23.57h60.15c19.8,0,23.76,9.24,23.76,19.23,0,10.18-4,19.42-23.76,19.42H280.71V500.2H305.6V454h35.26c27.34,0,49-11.31,49-43S368.2,368.21,340.86,368.21Z"/></svg>